<?xml version="1.0" encoding="UTF-8"?>
<svg version="1.1" xmlns="http://www.w3.org/2000/svg" width="2048" height="2048">
<path d="M0 0 C0.72012268 0.06316406 1.44024536 0.12632812 2.18218994 0.19140625 C82.1884094 7.22662542 161.64257355 25.3193556 272 73 C272.96534668 73.44843262 273.93069336 73.89686523 274.92529297 74.35888672 C289.26686479 81.0311174 303.22092814 88.23457794 317 96 C318.0302832 96.57766113 319.06056641 97.15532227 320.12207031 97.75048828 C334.90610977 106.06343699 349.28442641 114.83807452 363.38818359 124.25830078 C365.85172043 125.90111923 368.32420929 127.5292651 370.80078125 129.15234375 C400.71174364 148.81369271 429.26580199 170.89285756 455.7578125 194.97265625 C457.71208424 196.73967199 459.69059737 198.46913529 461.6875 200.1875 C473.22752829 210.30199538 484.14273875 221.03977932 495 231.875 C495.59003815 232.46244995 496.18007629 233.0498999 496.78799438 233.65515137 C502.54140971 239.38867113 508.25897957 245.10199629 513.53222656 251.28710938 C515.89336936 254.04256145 518.392999 256.66636869 520.875 259.3125 C525.35867269 264.13236077 529.6162423 269.07503978 533.73828125 274.2109375 C535.74597237 276.68674313 537.80037837 279.11380133 539.87963867 281.52954102 C546.32627384 289.03511038 552.33905249 296.83519149 558.28759766 304.73876953 C559.97143024 306.96227358 561.67634027 309.16796922 563.38671875 311.37109375 C585.31226782 339.82479626 604.57369026 370.62180183 622 402 C622.82153564 403.47847412 622.82153564 403.47847412 623.65966797 404.98681641 C665.62983854 480.89235457 693.76289323 563.36900121 714.8125 692.625 C714.91177795 693.47525757 715.01105591 694.32551514 715.11334229 695.20153809 C718.30964892 722.94060066 719.38502255 750.62325758 719.31805801 778.51895142 C719.31239628 780.91896634 719.30958922 783.31897414 719.30697632 785.71899414 C719.26944753 809.46085428 718.80905356 833.05080686 716.25 856.67572021 C715.98978451 859.0949746 715.74210011 861.51529707 715.49609375 863.93603516 C710.18292212 915.60193073 699.58130925 966.46681684 684 1016 C683.77290344 1016.72382874 683.54580688 1017.44765747 683.31182861 1018.19342041 C666.3546974 1072.10129256 643.45432162 1124.1607795 615 1173 C614.15297925 1174.47357537 613.30658698 1175.94751225 612.4609375 1177.421875 C602.44559655 1194.77963938 591.5492906 1211.62610052 580 1228 C579.57235352 1228.60779297 579.14470703 1229.21558594 578.70410156 1229.84179688 C572.94926766 1238.00573233 567.04493836 1246.04777936 561 1254 C560.23171875 1255.01449219 559.4634375 1256.02898437 558.671875 1257.07421875 C545.44952611 1274.41255689 531.53581454 1291.16986724 516.6640625 1307.1171875 C514.57689381 1309.37573661 512.55250193 1311.65709133 510.5625 1314 C506.85900311 1318.29496445 502.80135656 1322.22720753 498.76904297 1326.20947266 C495.78232469 1329.17198599 492.90747159 1332.16105656 490.1875 1335.375 C487.48220546 1338.55421475 484.54920117 1341.19376944 481.3671875 1343.88671875 C478.28575793 1346.63763195 475.40174336 1349.56177237 472.5 1352.5 C468.43692966 1356.60472506 464.35040656 1360.59437225 459.9453125 1364.3359375 C457.64767068 1366.30139014 455.42126877 1368.33729871 453.1875 1370.375 C448.94911157 1374.19597138 444.60120897 1377.84247331 440.1640625 1381.4296875 C437.7871519 1383.35180461 435.43324057 1385.29965269 433.0859375 1387.2578125 C424.24851817 1394.61925366 415.28122316 1401.72946482 406.00390625 1408.52880859 C404.04796148 1409.96478852 402.10190927 1411.4134099 400.15625 1412.86328125 C377.06474003 1429.93299794 352.85662014 1445.63940976 328 1460 C327.0601123 1460.54962402 326.12022461 1461.09924805 325.15185547 1461.66552734 C286.59676652 1484.15765119 245.96485747 1502.85535273 204 1518 C203.33889221 1518.23934265 202.67778442 1518.4786853 201.99664307 1518.72528076 C122.29192576 1547.53126261 38.46175242 1562.86706753 -315 1524 C-315.7226001 1523.75441345 -316.4452002 1523.5088269 -317.18969727 1523.25579834 C-349.67667048 1512.19138151 -381.04392784 1498.83594334 -411.78125 1483.59179688 C-414.79428211 1482.10173549 -417.81684493 1480.63349697 -420.84375 1479.171875 C-433.51242497 1473.01063736 -445.68134889 1466.1393056 -457.77172852 1458.91430664 C-460.1345288 1457.51320878 -462.50323479 1456.12801637 -464.88256836 1454.75561523 C-475.50033855 1448.6126558 -485.75801599 1442.02889856 -495.9375 1435.1875 C-496.72437195 1434.66053528 -497.5112439 1434.13357056 -498.32196045 1433.59063721 C-530.35741754 1412.13262639 -561.03273286 1388.66172928 -589.33984375 1362.44140625 C-591.50518706 1360.45412347 -593.69844755 1358.52749342 -595.9375 1356.625 C-600.25207568 1352.89590954 -604.20906878 1348.81965354 -608.21362305 1344.76489258 C-611.13397639 1341.82073085 -614.07502781 1338.98582658 -617.25 1336.3125 C-621.05912733 1333.07593461 -624.27626552 1329.42762053 -627.57421875 1325.6796875 C-630.16736347 1322.81511861 -632.87336596 1320.08531257 -635.625 1317.375 C-639.31037583 1313.72540452 -642.83353751 1310.02606345 -646.19921875 1306.08203125 C-648.37324202 1303.56846422 -650.62390488 1301.13223771 -652.875 1298.6875 C-657.31684309 1293.8121437 -661.51554647 1288.78784511 -665.65429688 1283.65478516 C-667.20977077 1281.74204894 -668.78346552 1279.84515231 -670.359375 1277.94921875 C-677.13803882 1269.78910366 -683.71862753 1261.55225008 -690 1253 C-690.96088177 1251.73204279 -691.92322572 1250.46519285 -692.88671875 1249.19921875 C-708.83098334 1228.09772737 -723.62967746 1205.82014803 -737 1183 C-737.42716309 1182.27876953 -737.85432617 1181.55753906 -738.29443359 1180.81445312 C-780.57517196 1109.38784383 -811.25200723 1032.34219448 -844 860 C-844.08463501 859.21715637 -844.16927002 858.43431274 -844.25646973 857.62774658 C-849.69089224 806.90335425 -849.45760122 753.70741607 -844 703 C-843.87271515 701.78700226 -843.87271515 701.78700226 -843.74285889 700.54949951 C-835.69066861 623.99667035 -816.87416398 548.97426982 -787 478 C-786.56010742 476.95199219 -786.12021484 475.90398437 -785.66699219 474.82421875 C-770.43527166 438.79908259 -752.42615094 404.29264931 -731.87548828 371.03564453 C-730.29343051 368.47494337 -728.72043062 365.90910708 -727.15234375 363.33984375 C-711.15114522 337.256088 -692.89580892 312.38430965 -673.45605469 288.77197266 C-672.16496651 287.20075905 -670.88261416 285.62237609 -669.6015625 284.04296875 C-660.36882397 272.66036873 -650.79733451 261.62842027 -640.78393555 250.92749023 C-639.40588508 249.43854697 -638.03986264 247.93846599 -636.67895508 246.43383789 C-629.86804206 238.92116795 -622.82922305 231.67385599 -615.64672852 224.51635742 C-613.80041754 222.67545292 -611.95957727 220.82919728 -610.11914062 218.98242188 C-604.77780712 213.63808119 -599.44665635 208.34399051 -593.6887207 203.44360352 C-590.93914029 201.09312369 -588.32529791 198.5991845 -585.6875 196.125 C-580.86763923 191.64132731 -575.92496022 187.3837577 -570.7890625 183.26171875 C-568.31294332 181.25377336 -565.88561044 179.19905535 -563.46948242 177.11962891 C-555.91825794 170.63327623 -548.06603572 164.58384282 -540.11572266 158.59667969 C-538.12694913 157.09580514 -536.14640543 155.58477271 -534.16796875 154.0703125 C-458.62909182 96.48571668 -371.73436113 54.05614125 -129 0 C-127.95824615 -0.09248016 -127.95824615 -0.09248016 -126.89544678 -0.18682861 C-84.98572549 -3.85264891 -41.89388688 -3.77465364 0 0 Z " fill="#000080" transform="translate(1088,243)"/>
<path d="M0 0 C0.72670898 0.38414063 1.45341797 0.76828125 2.20214844 1.1640625 C31.77642912 16.80248811 58.06318192 39.09401653 78 66 C78.85023745 67.11980911 79.7004977 68.2396009 80.55078125 69.359375 C87.30890907 78.39899236 92.73267493 88.03538756 98 98 C98.35835937 98.66225586 98.71671875 99.32451172 99.0859375 100.00683594 C115.05711813 129.56252641 122.86808006 163.53761676 124 197 C124.061875 198.61261719 124.061875 198.61261719 124.125 200.2578125 C125.02518554 246.95493742 111.34809986 295.91488206 84 334 C83.33677734 334.92594971 83.33677734 334.92594971 82.66015625 335.87060547 C76.67509944 344.177102 70.42547318 352.00978161 63.39453125 359.453125 C61.44879182 361.52265535 59.61317042 363.6186913 57.8125 365.8125 C54.56562598 369.63720753 50.82763813 372.77240415 47 376 C46.07445312 376.81339844 45.14890625 377.62679688 44.1953125 378.46484375 C-1.52122628 418.42486336 -61.92801779 437.7074809 -122.35986328 433.78173828 C-183.13679729 428.66528978 -240.5266397 401.23537488 -280.55810547 354.71923828 C-320.44151654 307.16438207 -340.7270189 246.38381277 -335.50390625 184.33984375 C-330.49148444 133.72117739 -310.59052945 85.97576171 -275.54296875 48.75390625 C-273.75708614 46.81988591 -272.07118467 44.89685912 -270.41015625 42.86328125 C-268.444736 40.52834925 -266.57237313 38.58016028 -264.25 36.625 C-262.16980325 34.85951936 -260.10758813 33.10089177 -258.1171875 31.234375 C-190.44710472 -31.92436893 -80.69328537 -43.66468775 0 0 Z " fill="#00007F" transform="translate(1913,37)"/>
<path d="M0 0 C0.81735626 -0.00376648 1.63471252 -0.00753296 2.47683716 -0.01141357 C17.56257001 -0.04665751 32.51984223 1.03174127 47.3125 4.125 C48.14467041 4.29676758 48.97684082 4.46853516 49.83422852 4.64550781 C57.80731769 6.35070412 65.50364741 8.59799146 73.1875 11.3125 C73.98236816 11.59077637 74.77723633 11.86905273 75.59619141 12.15576172 C116.59581826 26.68120913 154.77734561 52.338102 181.1875 87.3125 C181.67428223 87.94994141 182.16106445 88.58738281 182.66259766 89.24414062 C190.40042949 99.42958199 197.1651901 109.84360405 203.07617188 121.18798828 C204.11740623 123.17850263 205.18772671 125.15027112 206.265625 127.12109375 C214.24858121 142.02442838 219.8972854 158.3294466 224.0625 174.6875 C224.33066528 175.73405762 224.33066528 175.73405762 224.60424805 176.80175781 C225.19672015 179.29572413 225.70044663 181.79560527 226.1875 184.3125 C226.37332138 185.24122925 226.37332138 185.24122925 226.56289673 186.1887207 C229.0835998 199.08571021 229.68641204 211.7217117 229.63354492 224.84472656 C229.62504493 228.04557988 229.65391283 231.24463411 229.68554688 234.4453125 C229.86487268 288.26833884 207.74602044 341.3429226 172.1875 381.3125 C171.74583496 381.81587891 171.30416992 382.31925781 170.84912109 382.83789062 C153.28347259 402.8213009 132.64392229 418.75952744 109.1875 431.3125 C108.51299805 431.67923828 107.83849609 432.04597656 107.14355469 432.42382812 C54.07354331 461.08321766 -9.47868783 465.78726375 -66.94140625 448.8203125 C-93.16965306 440.7354158 -117.13571049 428.03422122 -138.8125 411.3125 C-140.16601562 410.27996094 -140.16601562 410.27996094 -141.546875 409.2265625 C-155.39877606 398.41855052 -167.93058951 386.09010531 -178.8125 372.3125 C-179.59367187 371.35988281 -180.37484375 370.40726563 -181.1796875 369.42578125 C-195.84742059 351.12626121 -206.42643068 330.10706476 -214.8125 308.3125 C-215.12695068 307.5709668 -215.44140137 306.82943359 -215.76538086 306.06542969 C-218.47707152 299.60478965 -220.29372147 293.13153207 -221.875 286.3125 C-222.13176514 285.22251709 -222.38853027 284.13253418 -222.65307617 283.00952148 C-224.7715994 273.84450341 -226.60183313 264.64384533 -227.8125 255.3125 C-227.90748779 254.58281006 -228.00247559 253.85312012 -228.1003418 253.10131836 C-228.95830264 245.65879406 -229.00471096 238.235237 -229 230.75 C-229.00006042 230.08708954 -229.00012085 229.42417908 -229.00018311 228.74118042 C-228.98681854 218.43134889 -228.36095844 208.50377259 -226.8125 198.3125 C-226.70292969 197.178125 -226.59335938 196.04375 -226.48046875 194.875 C-223.08463299 161.43907869 -208.53361872 126.42409808 -188.8125 99.3125 C-188.11769531 98.34570312 -187.42289063 97.37890625 -186.70703125 96.3828125 C-173.02518008 77.73674984 -157.22533887 60.20260364 -138.48046875 46.53173828 C-136.79466213 45.29946102 -135.13155295 44.04043445 -133.46875 42.77734375 C-124.42740262 36.00871327 -114.78366881 30.58329078 -104.8125 25.3125 C-104.15024414 24.95414062 -103.48798828 24.59578125 -102.80566406 24.2265625 C-70.9496184 7.01232553 -35.91303625 0.09112714 0 0 Z " fill="#FEFEFE" transform="translate(1347.8125,470.6875)"/>
<path d="M0 0 C1.08166443 -0.00012085 2.16332886 -0.0002417 3.277771 -0.00036621 C19.92201598 0.02610942 35.88615066 0.76207825 52.1875 4.375 C52.92323242 4.52984863 53.65896484 4.68469727 54.41699219 4.84423828 C58.76442545 5.78206251 62.96403005 6.98709148 67.1875 8.375 C68.27587158 8.72836426 68.27587158 8.72836426 69.38623047 9.08886719 C86.75382507 14.81697515 101.3531585 22.222142 114.1875 35.375 C114.99832031 36.17679688 115.80914063 36.97859375 116.64453125 37.8046875 C131.58807691 53.33375539 138.5506929 74.37171499 138.4390564 95.70387268 C138.4435116 97.17134072 138.4435116 97.17134072 138.44805682 98.66845459 C138.45563442 101.9138781 138.44922863 105.15911728 138.44287109 108.40454102 C138.44562386 110.74458945 138.44930549 113.08463696 138.45384216 115.42468262 C138.46192943 120.44786913 138.46412889 125.47101119 138.46189499 130.49420357 C138.45929461 137.7676051 138.47048166 145.04093948 138.48644479 152.31431936 C138.51235326 164.131984 138.5324004 175.94964868 138.54589844 187.76733398 C138.54670881 188.47324729 138.54751918 189.1791606 138.5483541 189.90646522 C138.5595806 199.92863923 138.56485867 209.95080766 138.56774123 219.97298711 C138.56804721 221.03231186 138.56804721 221.03231186 138.56835938 222.11303711 C138.56855931 222.81838506 138.56875925 223.52373302 138.56896524 224.25045515 C138.57270285 236.027883 138.59181645 247.80522674 138.62345374 259.58261245 C138.64399736 267.47865364 138.64604683 275.37447609 138.63517356 283.27053654 C138.63256377 288.18548942 138.64658312 293.10029161 138.66525459 298.01520538 C138.67056978 300.28955218 138.66909137 302.56392685 138.66021919 304.83826256 C138.64906069 307.95023763 138.66257331 311.06119741 138.68197632 314.17311096 C138.66828933 315.51306833 138.66828933 315.51306833 138.65432584 316.88009554 C138.74631397 324.49602162 140.84521424 331.5784073 145.4375 337.75 C150.89138409 342.95598027 157.21095597 345.51244203 164.73046875 345.47265625 C165.69750732 345.47015869 166.6645459 345.46766113 167.66088867 345.46508789 C168.88654541 345.45598389 170.11220215 345.44687988 171.375 345.4375 C175.273125 345.416875 179.17125 345.39625 183.1875 345.375 C183.1875 359.895 183.1875 374.415 183.1875 389.375 C169.48500672 394.51343498 156.88743763 395.67189632 142.375 395.75 C140.4093811 395.77066528 140.4093811 395.77066528 138.40405273 395.79174805 C123.20672797 395.71967727 109.17992029 392.35165096 97.8125 381.75 C92.91952972 376.53502045 89.93890157 370.92900306 87.1875 364.375 C86.71376953 363.34439453 86.71376953 363.34439453 86.23046875 362.29296875 C83.66010404 356.27856857 83.02215183 349.81654827 82.1875 343.375 C77.51731555 346.75401581 73.06579094 350.3122426 68.6875 354.0625 C33.33476549 383.94221704 -10.59249533 399.43815873 -56.89208984 396.15673828 C-83.45944123 393.76672675 -109.30706046 386.13264195 -129.8125 368.375 C-130.95138672 367.45267578 -130.95138672 367.45267578 -132.11328125 366.51171875 C-146.45644492 354.54669621 -156.9060485 335.95403176 -160.9375 317.8125 C-161.10636719 317.08353516 -161.27523438 316.35457031 -161.44921875 315.60351562 C-168.01416719 286.88832777 -165.05687565 254.79850728 -150.48828125 229.01171875 C-147.62235507 224.50239434 -144.2508843 220.45373118 -140.8125 216.375 C-140.17699219 215.54484375 -139.54148437 214.7146875 -138.88671875 213.859375 C-118.97089852 190.00539823 -83.18439075 179.96582184 -53.8125 175.375 C-52.66297852 175.18873047 -51.51345703 175.00246094 -50.32910156 174.81054688 C-34.61490721 172.27112654 -18.87472373 170.09706659 -3.07208252 168.18649292 C9.61832571 166.64961676 22.27539828 165.0477911 34.875 162.875 C35.9472583 162.69775391 37.0195166 162.52050781 38.12426758 162.33789062 C50.70627803 160.06024205 63.58869517 155.54344799 73.0625 146.6875 C78.74699961 137.82636826 79.79042106 129.1400263 79.59912109 118.79492188 C79.562421 116.74558851 79.55810458 114.69806703 79.55859375 112.6484375 C79.47783477 97.37228061 76.43319511 85.98499042 65.6875 74.69140625 C47.06368172 57.43527463 20.7685574 55.14585791 -3.375 55.125 C-4.08082214 55.12432526 -4.78664429 55.12365051 -5.51385498 55.12295532 C-29.52309316 55.15932575 -53.16214339 59.30403622 -71.234375 76.47265625 C-82.08514995 88.68799835 -85.66235405 103.62427025 -88.8125 119.375 C-108.2825 119.375 -127.7525 119.375 -147.8125 119.375 C-147.8125 88.05336324 -141.10097435 61.62752623 -119.25 38.3125 C-101.04722025 20.78493928 -77.0622756 10.82528553 -52.8125 5.125 C-51.24749756 4.75544189 -51.24749756 4.75544189 -49.65087891 4.37841797 C-33.0695807 0.6602809 -16.92892803 -0.02902821 0 0 Z " fill="#FDFDFE" transform="translate(1413.8125,1035.625)"/>
<path d="M0 0 C19.14 0 38.28 0 58 0 C58.0093457 8.15589844 58.01869141 16.31179688 58.02832031 24.71484375 C58.06107637 50.85545132 58.11339558 76.99598494 58.17792095 103.13653225 C58.18793757 107.20169822 58.19778184 111.2668646 58.20751953 115.33203125 C58.2094609 116.1412815 58.21140228 116.95053175 58.21340248 117.78430474 C58.24436462 130.86174117 58.26138693 143.93916008 58.27319422 157.01662624 C58.28563585 170.45034066 58.31320488 183.88396363 58.35461307 197.31762028 C58.37966259 205.59688346 58.39312356 213.87599483 58.39142957 222.15529644 C58.39139966 227.84432265 58.40615578 233.53319501 58.43216428 239.22216117 C58.44671144 242.49708795 58.45289565 245.77163951 58.44580269 249.04660034 C58.39886983 274.05979229 61.68746499 295.49391321 79.1875 314.6875 C96.6147294 331.23938911 119.5723007 333.92365993 142.48046875 333.47265625 C162.30977237 332.57597909 182.35303488 324.47220853 197 311 C197.81726562 310.27425781 198.63453125 309.54851562 199.4765625 308.80078125 C222.0498956 287.66012099 232.60625684 254.19948225 234 224 C234.20155325 216.65615051 234.18497906 209.30772938 234.20532227 201.96166992 C234.21491682 199.75288211 234.22492779 197.54409608 234.23532104 195.33531189 C234.26220536 189.37347338 234.28330344 183.41162709 234.30332303 177.44976211 C234.32528497 171.20642817 234.35262343 164.96311776 234.37937927 158.71980286 C234.42352086 148.25193308 234.46437882 137.78405478 234.50268555 127.31616211 C234.54212786 116.54043636 234.58357459 105.76472136 234.62768555 94.98901367 C234.63177196 93.99050627 234.63177196 93.99050627 234.63594092 92.97182699 C234.64962183 89.63191315 234.66334395 86.29199947 234.67708123 82.95208585 C234.79069017 55.30141158 234.89686405 27.65071545 235 0 C254.47 0 273.94 0 294 0 C294 122.1 294 244.2 294 370 C276.51 370 259.02 370 241 370 C240.67 353.5 240.34 337 240 320 C236.37 324.62 232.74 329.24 229 334 C226.9602469 336.34513327 224.94991577 338.63180572 222.8125 340.875 C222.30968506 341.40907471 221.80687012 341.94314941 221.28881836 342.4934082 C220.30300694 343.53673451 219.31433529 344.57736878 218.32226562 345.61474609 C217.17857825 346.81291489 216.04888643 348.02441367 214.921875 349.23828125 C191.13459773 374.17494377 157.80304714 385.11227483 123.95703125 386.203125 C87.74349491 386.75255728 52.39329134 379.12229849 25.6875 353.25 C2.85139618 330.12881998 -0.48847126 300.82399632 -0.34819686 269.91761649 C-0.3350856 266.28529912 -0.33963647 262.65299481 -0.34190369 259.0206604 C-0.34346701 252.74686748 -0.33415713 246.47316909 -0.31719017 240.19939995 C-0.2926758 231.12890702 -0.28498227 222.0584592 -0.2812262 212.98793674 C-0.27468108 198.26707849 -0.25477292 183.54627047 -0.22631836 168.82543945 C-0.19872733 154.53637949 -0.17751852 140.24733323 -0.16479492 125.95825195 C-0.16361267 124.63424487 -0.16361267 124.63424487 -0.16240653 123.28349017 C-0.15849105 118.85482188 -0.15470001 114.42615349 -0.15097082 109.99748504 C-0.11993539 73.33161206 -0.0646652 36.66583212 0 0 Z " fill="#FDFDFE" transform="translate(874,1046)"/>
<path d="M0 0 C21.45 0 42.9 0 65 0 C65 150.48 65 300.96 65 456 C148.82 456 232.64 456 319 456 C319 474.81 319 493.62 319 513 C213.73 513 108.46 513 0 513 C0 343.71 0 174.42 0 0 Z " fill="#FEFEFE" transform="translate(493,902)"/>
<path d="M0 0 C0.04650782 9.47567806 0.08196243 18.95131633 0.10362434 28.42708397 C0.11402524 32.82789541 0.12811632 37.22862829 0.15087891 41.62939453 C0.17273985 45.88285714 0.18459636 50.13624457 0.18975449 54.38975906 C0.1934266 56.00591845 0.20059678 57.6220741 0.21146011 59.23820114 C0.32859896 77.40062787 -2.33296291 92.17181784 -15 106 C-15.8765625 106.95777344 -16.753125 107.91554688 -17.65625 108.90234375 C-39.01185855 131.52062325 -69.58323338 145.91600838 -100.82885742 147.10791016 C-123.1040486 147.54992815 -144.41361796 146.82754992 -163 133 C-163.72832031 132.46632813 -164.45664063 131.93265625 -165.20703125 131.3828125 C-174.90622282 123.63087737 -181.50491792 111.29916575 -183 99 C-183.18911301 95.27002393 -183.23068885 91.54679458 -183.25 87.8125 C-183.270625 86.83474609 -183.29125 85.85699219 -183.3125 84.84960938 C-183.38952717 70.28184561 -178.47336495 57.84951216 -168.42578125 47.30859375 C-156.62127801 36.07435636 -140.65308857 29.70838878 -125 26 C-124.10152344 25.77602539 -123.20304687 25.55205078 -122.27734375 25.32128906 C-106.63565844 21.44114196 -91.09070681 18.94753129 -75.11479187 17.08995056 C-67.39801798 16.19221192 -59.86670312 15.01972502 -52.25878906 13.44042969 C-49.39645151 12.88231718 -46.52392227 12.39985972 -43.6484375 11.9140625 C-29.91229239 9.5586382 -16.22954298 7.19239871 -3.68359375 0.82421875 C-2 0 -2 0 0 0 Z " fill="#000080" transform="translate(1494,1233)"/>
<path d="M0 0 C3.44370946 0.58835577 5.16493074 1.76126993 7.671875 4.16015625 C8.33574219 4.78857422 8.99960938 5.41699219 9.68359375 6.06445312 C10.70646484 7.05348633 10.70646484 7.05348633 11.75 8.0625 C12.44738281 8.72572266 13.14476562 9.38894531 13.86328125 10.07226562 C15.58184749 11.70843485 17.29367649 13.35108255 19 15 C18.46309159 19.05612047 16.44969798 20.91928753 13.60717773 23.74926758 C12.92397713 24.43553474 12.92397713 24.43553474 12.22697449 25.13566589 C10.71966806 26.64597896 9.20188854 28.1452714 7.68359375 29.64453125 C6.62743252 30.69763175 5.57186378 31.75132676 4.51686096 32.80558777 C2.30116627 35.0166785 0.08065492 37.22277079 -2.14379883 39.42504883 C-4.97581758 42.22895871 -7.79925289 45.04130802 -10.61949253 47.85706043 C-13.32783116 50.56020136 -16.04081398 53.25866308 -18.75390625 55.95703125 C-19.26257296 56.46381723 -19.77123966 56.97060322 -20.29532051 57.49274635 C-25.51343295 62.68597686 -30.75251934 67.80655705 -36.3768158 72.56401062 C-37.95498819 73.96017921 -39.33880345 75.43793362 -40.75 77 C-41.86375 77.99 -41.86375 77.99 -43 79 C-46.20726423 78.66862805 -47.79425783 77.56203635 -49.9453125 75.234375 C-50.72455078 74.39326172 -50.72455078 74.39326172 -51.51953125 73.53515625 C-52.04933594 72.94605469 -52.57914063 72.35695313 -53.125 71.75 C-53.66253906 71.17636719 -54.20007812 70.60273437 -54.75390625 70.01171875 C-57.63982027 66.85232659 -59.72877276 64.17464749 -61 60 C-60.50738174 59.573134 -60.01476349 59.14626801 -59.50721741 58.70646667 C-45.94891748 46.908036 -33.15469205 34.31892119 -20.46704102 21.59741211 C-18.0163127 19.14120953 -15.56013158 16.69054697 -13.10351562 14.24023438 C-11.53874086 12.6748006 -9.97427535 11.10905763 -8.41015625 9.54296875 C-7.67805435 8.81289108 -6.94595245 8.08281342 -6.19166565 7.33061218 C-5.52263718 6.65843155 -4.8536087 5.98625092 -4.16430664 5.29370117 C-3.5752504 4.70384933 -2.98619415 4.1139975 -2.37928772 3.50627136 C-0.90054671 2.02960513 -0.90054671 2.02960513 0 0 Z " fill="#7F7F7F" transform="translate(1754,1706)"/>
<path d="M0 0 C7.00247588 3.94472808 13.72549334 7.96194024 20 13 C18.62535462 16.77475925 16.88951354 19.91158985 14.65625 23.24609375 C13.99222168 24.2410083 13.32819336 25.23592285 12.64404297 26.26098633 C11.93650879 27.30923584 11.22897461 28.35748535 10.5 29.4375 C9.77312988 30.51990967 9.04625977 31.60231934 8.29736328 32.7175293 C2.99933372 40.58092675 -2.38778607 48.35770651 -8 56 C-8.80800049 57.10335693 -8.80800049 57.10335693 -9.63232422 58.22900391 C-16.69348007 67.86529025 -23.80472428 77.4634044 -31 87 C-34.72485138 85.34351561 -37.76484421 83.02526235 -41 80.5625 C-42.03125 79.78003906 -43.0625 78.99757813 -44.125 78.19140625 C-45.07375 77.46824219 -46.0225 76.74507812 -47 76 C-48.3322808 74.99859815 -49.66512801 73.99794516 -51 73 C-49.3963276 67.67200946 -45.92332594 63.82657174 -42.5 59.5625 C-36.42183002 51.86405077 -30.60942885 44.04549191 -25 36 C-24.08250977 34.68926514 -24.08250977 34.68926514 -23.14648438 33.35205078 C-12.56164077 18.23811641 -12.56164077 18.23811641 -2.28515625 2.9140625 C-1 1 -1 1 0 0 Z " fill="#7F7F7F" transform="translate(1863,1568)"/>
<path d="M0 0 C3.01838244 1.23454561 4.4838104 3.11427172 6.60546875 5.57421875 C7.77722656 6.92580078 7.77722656 6.92580078 8.97265625 8.3046875 C10.05933594 9.58279297 10.05933594 9.58279297 11.16796875 10.88671875 C11.72742188 11.52222656 12.286875 12.15773438 12.86328125 12.8125 C16.16796875 16.61761161 16.16796875 16.61761161 16.16796875 18.88671875 C14.67518616 20.37556458 14.67518616 20.37556458 12.62524414 22.08911133 C-0.33971764 33.12104336 -12.35139788 45.24365502 -24.36499023 57.28930664 C-26.81571855 59.74550922 -29.27189967 62.19617178 -31.72851562 64.64648438 C-33.29329039 66.21191815 -34.8577559 67.77766112 -36.421875 69.34375 C-37.1539769 70.07382767 -37.8860788 70.80390533 -38.6403656 71.55610657 C-39.30939407 72.2282872 -39.97842255 72.90046783 -40.66772461 73.59301758 C-41.25678085 74.18286942 -41.8458371 74.77272125 -42.45274353 75.38044739 C-43.93148454 76.85711362 -43.93148454 76.85711362 -44.83203125 78.88671875 C-50.07474505 77.97999663 -53.0673098 74.40743048 -56.83203125 70.88671875 C-57.528125 70.26667969 -58.22421875 69.64664063 -58.94140625 69.0078125 C-59.90820312 68.11255859 -59.90820312 68.11255859 -60.89453125 67.19921875 C-61.77818359 66.38904297 -61.77818359 66.38904297 -62.6796875 65.5625 C-63.83203125 63.88671875 -63.83203125 63.88671875 -63.68434143 62.08454895 C-62.50175778 59.0350511 -60.66330866 57.35154894 -58.34741211 55.0456543 C-57.88219147 54.57838928 -57.41697083 54.11112427 -56.93765259 53.62969971 C-55.39788292 52.08692302 -53.84763346 50.55516192 -52.296875 49.0234375 C-51.21829357 47.94791667 -50.14030454 46.87180147 -49.06288147 45.79512024 C-46.80010904 43.53695198 -44.53251764 41.28378068 -42.26098633 39.03442383 C-39.36843189 36.16998189 -36.48446284 33.29709554 -33.60369015 30.42080975 C-30.83788515 27.66020127 -28.06743446 24.9042728 -25.296875 22.1484375 C-24.51726567 21.37164926 -24.51726567 21.37164926 -23.72190666 20.57916832 C-18.42353315 15.30552191 -13.10706835 10.10025313 -7.3986969 5.26618958 C-5.64404939 3.77486654 -5.64404939 3.77486654 -3.58203125 1.38671875 C-1.83203125 -0.11328125 -1.83203125 -0.11328125 0 0 Z " fill="#7F7F7F" transform="translate(338.83203125,263.11328125)"/>
<path d="M0 0 C1.48884583 1.49278259 1.48884583 1.49278259 3.20239258 3.54272461 C14.23432461 16.50768639 26.35693627 28.51936663 38.40258789 40.53295898 C40.85879047 42.9836873 43.30945303 45.43986842 45.75976562 47.89648438 C47.3251994 49.46125914 48.89094237 51.02572465 50.45703125 52.58984375 C51.18710892 53.32194565 51.91718658 54.05404755 52.66938782 54.80833435 C53.34156845 55.47736282 54.01374908 56.1463913 54.70629883 56.83569336 C55.29615067 57.4247496 55.8860025 58.01380585 56.49372864 58.62071228 C57.97039487 60.09945329 57.97039487 60.09945329 60 61 C59.41164423 64.44370946 58.23873007 66.16493074 55.83984375 68.671875 C55.21142578 69.33574219 54.58300781 69.99960938 53.93554688 70.68359375 C53.27619141 71.36550781 52.61683594 72.04742188 51.9375 72.75 C51.27427734 73.44738281 50.61105469 74.14476562 49.92773438 74.86328125 C48.29156515 76.58184749 46.64891745 78.29367649 45 80 C40.94387953 79.46309159 39.08071247 77.44969798 36.25073242 74.60717773 C35.79322098 74.15171066 35.33570953 73.69624359 34.86433411 73.22697449 C33.35402104 71.71966806 31.8547286 70.20188854 30.35546875 68.68359375 C29.30236825 67.62743252 28.24867324 66.57186378 27.19441223 65.51686096 C24.9833215 63.30116627 22.77722921 61.08065492 20.57495117 58.85620117 C17.77104129 56.02418242 14.95869198 53.20074711 12.14293957 50.38050747 C9.43979864 47.67216884 6.74133692 44.95918602 4.04296875 42.24609375 C3.53618277 41.73742704 3.02939678 41.22876034 2.50725365 40.70467949 C-2.68597686 35.48656705 -7.80655705 30.24748066 -12.56401062 24.6231842 C-13.96017921 23.04501181 -15.43793362 21.66119655 -17 20.25 C-19 18 -19 18 -18.98828125 16.20703125 C-17.4955112 12.87337482 -14.88545332 10.79781099 -12.1875 8.4375 C-11.65318359 7.95603516 -11.11886719 7.47457031 -10.56835938 6.97851562 C-2.76432471 0 -2.76432471 0 0 0 Z " fill="#7F7F7F" transform="translate(282,1693)"/>
<path d="M0 0 C2.34404948 2.89598647 4.25278217 6.10825779 6.25 9.25 C6.83007812 10.12269531 7.41015625 10.99539062 8.0078125 11.89453125 C8.54664063 12.73886719 9.08546875 13.58320313 9.640625 14.453125 C10.14110352 15.22817383 10.64158203 16.00322266 11.15722656 16.80175781 C12 19 12 19 11.33666992 21.15161133 C9.20509152 24.09922413 6.14858697 25.63380353 3.0625 27.4375 C-18.77826512 40.64516735 -39.3532116 56.02260167 -60 71 C-63.84725418 67.31911357 -67.11385725 63.43814081 -70.3125 59.1875 C-70.76689453 58.59001953 -71.22128906 57.99253906 -71.68945312 57.37695312 C-72.79633917 55.92052412 -73.89865264 54.46062183 -75 53 C-73.62204741 49.76037332 -72.19220059 48.09530897 -69.3515625 46.0390625 C-68.60471191 45.49290283 -67.85786133 44.94674316 -67.08837891 44.3840332 C-65.86900635 43.51331177 -65.86900635 43.51331177 -64.625 42.625 C-63.77212402 42.00778076 -62.91924805 41.39056152 -62.04052734 40.75463867 C-59.36732353 38.82649432 -56.68464747 36.91216883 -54 35 C-53.21238281 34.43458496 -52.42476563 33.86916992 -51.61328125 33.28662109 C-37.2646602 22.99714942 -22.48818145 13.36616614 -7.68530273 3.74902344 C-1.92936907 0 -1.92936907 0 0 0 Z " fill="#7F7F7F" transform="translate(482,155)"/>
<path d="M0 0 C2.56507711 1.11800597 3.56945266 2.44382212 5.23071289 4.68652344 C5.8043457 5.45029297 6.37797852 6.2140625 6.96899414 7.00097656 C7.55551758 7.80341797 8.14204102 8.60585937 8.74633789 9.43261719 C9.34833008 10.23892578 9.95032227 11.04523438 10.57055664 11.87597656 C12.05522998 13.86732414 13.52989676 15.86532613 14.99633789 17.87011719 C-1.09152787 34.45165392 -22.41470464 46.59138307 -41.62866211 59.24511719 C-42.2613501 59.66356903 -42.89403809 60.08202087 -43.54589844 60.51315308 C-45.35412598 61.7074373 -47.16642582 62.89525364 -48.98022461 64.08105469 C-50.02259277 64.76474121 -51.06496094 65.44842773 -52.13891602 66.15283203 C-54.71962044 67.69984711 -57.17860912 68.85481302 -60.00366211 69.87011719 C-62.07147884 66.80358329 -64.10305842 63.71466473 -66.12866211 60.62011719 C-66.71776367 59.74742188 -67.30686523 58.87472656 -67.91381836 57.97558594 C-68.46166992 57.13125 -69.00952148 56.28691406 -69.57397461 55.41699219 C-70.34378662 54.25441895 -70.34378662 54.25441895 -71.12915039 53.06835938 C-72.00366211 50.87011719 -72.00366211 50.87011719 -71.34472656 48.71850586 C-69.2081393 45.77364838 -66.15319005 44.23686362 -63.06616211 42.43261719 C-53.44956558 36.61721616 -44.22438037 30.28962892 -35.00366211 23.87011719 C-34.26438477 23.35658691 -33.52510742 22.84305664 -32.76342773 22.31396484 C-30.61115675 20.81633492 -28.46250809 19.31372496 -26.31616211 17.80761719 C-25.6295752 17.32607178 -24.94298828 16.84452637 -24.2355957 16.34838867 C-20.6039021 13.77961932 -17.03949515 11.14699132 -13.52709961 8.41699219 C-12.43594849 7.57406616 -12.43594849 7.57406616 -11.32275391 6.71411133 C-9.9323987 5.63364402 -8.55054338 4.54212234 -7.17871094 3.43823242 C-2.5424495 -0.16480847 -2.5424495 -0.16480847 0 0 Z " fill="#7F7F7F" transform="translate(1626.003662109375,1823.1298828125)"/>
<path d="M0 0 C5.32799054 1.6036724 9.17342826 5.07667406 13.4375 8.5 C21.13594923 14.57816998 28.95450809 20.39057115 37 26 C38.31073486 26.91749023 38.31073486 26.91749023 39.64794922 27.85351562 C54.73112975 38.43608028 54.73112975 38.43608028 70.0859375 48.6171875 C72 50 72 50 73 52 C71.07568585 54.98787995 69.13340929 57.96364785 67.1875 60.9375 C66.64029297 61.78763672 66.09308594 62.63777344 65.52929688 63.51367188 C64.99755859 64.32255859 64.46582031 65.13144531 63.91796875 65.96484375 C63.43094482 66.7137085 62.9439209 67.46257324 62.44213867 68.23413086 C61 70 61 70 58 71 C55.40307617 69.61987305 55.40307617 69.61987305 52.29296875 67.51171875 C51.73583694 67.13793594 51.17870514 66.76415314 50.60469055 66.37904358 C48.79183365 65.15871186 46.9896153 63.92362731 45.1875 62.6875 C43.94315585 61.84406595 42.69836322 61.00129318 41.453125 60.15917969 C33.20801576 54.56926822 25.0223431 48.906006 17 43 C16.2687793 42.4642334 15.53755859 41.9284668 14.78417969 41.37646484 C5.14344104 34.31243271 -4.45917911 27.19846367 -14 20 C-12.64783162 17.11612221 -11.10247664 14.64582025 -9.1796875 12.109375 C-8.64472656 11.40039062 -8.10976563 10.69140625 -7.55859375 9.9609375 C-7.00300781 9.23132812 -6.44742187 8.50171875 -5.875 7.75 C-5.31167969 7.00492188 -4.74835938 6.25984375 -4.16796875 5.4921875 C-2.78151746 3.65925189 -1.39212232 1.82862987 0 0 Z " fill="#7F7F7F" transform="translate(407,1812)"/>
<path d="M0 0 C3.26192484 0.4793086 5.30097287 1.73864857 7.890625 3.72265625 C8.95410156 4.52993164 8.95410156 4.52993164 10.0390625 5.35351562 C10.76867187 5.91748047 11.49828125 6.48144531 12.25 7.0625 C13.36761719 7.91424805 13.36761719 7.91424805 14.5078125 8.78320312 C16.34300661 10.18312683 18.17344687 11.58883221 20 13 C18.3963276 18.32799054 14.92332594 22.17342826 11.5 26.4375 C5.42183002 34.13594923 -0.39057115 41.95450809 -6 50 C-6.61166016 50.87382324 -7.22332031 51.74764648 -7.85351562 52.64794922 C-18.43608028 67.73112975 -18.43608028 67.73112975 -28.6171875 83.0859375 C-30 85 -30 85 -32 86 C-33.64819336 85.22729492 -33.64819336 85.22729492 -35.58984375 83.98046875 C-36.29173828 83.53509766 -36.99363281 83.08972656 -37.71679688 82.63085938 C-38.44962891 82.15455078 -39.18246094 81.67824219 -39.9375 81.1875 C-40.66646484 80.72279297 -41.39542969 80.25808594 -42.14648438 79.77929688 C-45.11752924 77.88120497 -48.06645772 75.95569485 -51 74 C-50.43399137 69.97345758 -49.24162883 67.45712477 -46.9375 64.125 C-46.21691406 63.07699219 -45.49632812 62.02898437 -44.75390625 60.94921875 C-44.32867676 60.33997559 -43.90344727 59.73073242 -43.46533203 59.10302734 C-41.76709177 56.66573284 -40.08499155 54.2176154 -38.40234375 51.76953125 C-8.74309471 8.74309471 -8.74309471 8.74309471 0 0 Z " fill="#7F7F7F" transform="translate(216,394)"/>
<path d="M0 0 C2.94485748 2.13658726 4.48164224 5.19153651 6.28588867 8.27856445 C12.1012897 17.89516099 18.42887694 27.12034619 24.84838867 36.34106445 C25.36191895 37.0803418 25.87544922 37.81961914 26.40454102 38.58129883 C27.90217094 40.73356982 29.4047809 42.88221847 30.91088867 45.02856445 C31.39243408 45.71515137 31.87397949 46.40173828 32.37011719 47.10913086 C34.93888654 50.74082446 37.57151454 54.30523142 40.30151367 57.81762695 C41.1444397 58.90877808 41.1444397 58.90877808 42.00439453 60.02197266 C43.08486184 61.41232786 44.17638352 62.79418318 45.28027344 64.16601562 C48.89126375 68.81250608 48.89126375 68.81250608 48.68457031 71.3605957 C47.67764355 73.74546868 46.60257386 74.72577414 44.57495117 76.3215332 C43.91495117 76.84553711 43.25495117 77.36954102 42.57495117 77.90942383 C41.88143555 78.44374023 41.18791992 78.97805664 40.47338867 79.52856445 C39.78760742 80.07448242 39.10182617 80.62040039 38.39526367 81.18286133 C33.28276479 85.19627241 33.28276479 85.19627241 29.84838867 86.34106445 C23.54907424 79.09766673 18.06504192 71.46769907 12.71875 63.5078125 C9.91248609 59.33373073 7.04806695 55.22581933 4.06323242 51.17700195 C-0.41929469 45.0500768 -4.60846383 38.74736836 -8.76293945 32.39575195 C-10.04085918 30.44430731 -11.32650732 28.4981011 -12.61254883 26.55200195 C-13.4359344 25.29710116 -14.25886803 24.04190369 -15.08129883 22.78637695 C-15.46148163 22.21235138 -15.84166443 21.63832581 -16.23336792 21.04690552 C-18.27332412 17.91164593 -19.89794632 14.86725384 -21.15161133 11.34106445 C-18.08507743 9.27324773 -14.99615887 7.24166814 -11.90161133 5.21606445 C-11.02891602 4.62696289 -10.1562207 4.03786133 -9.25708008 3.4309082 C-8.41274414 2.88305664 -7.5684082 2.33520508 -6.69848633 1.77075195 C-5.9234375 1.25754395 -5.14838867 0.74433594 -4.34985352 0.21557617 C-2.15161133 -0.65893555 -2.15161133 -0.65893555 0 0 Z " fill="#7F7F7F" transform="translate(176.151611328125,1554.658935546875)"/>
<path d="M0 0 C5.26122171 1.51031916 9.67232586 3.90374191 14.375 6.625 C15.11105469 7.04523437 15.84710938 7.46546875 16.60546875 7.8984375 C18.4063765 8.92752764 20.20357318 9.96310756 22 11 C20.34836725 15.39266291 18.27101612 19.53689525 16.140625 23.7109375 C15.35246655 25.26737663 14.56472364 26.82402624 13.77734375 28.38085938 C13.36468262 29.19578857 12.95202148 30.01071777 12.52685547 30.8503418 C3.99020773 47.72939997 -4.07691253 64.75554131 -11.67578125 82.07617188 C-13.04171798 85.09211182 -14.50103489 88.04822559 -16 91 C-20.95757898 89.45173401 -25.63810401 87.48219062 -30.375 85.375 C-31.11105469 85.05015625 -31.84710938 84.7253125 -32.60546875 84.390625 C-34.40470969 83.59615497 -36.20250496 82.79841229 -38 82 C-37.4204885 77.11849545 -35.88993217 73.04981837 -33.82421875 68.63671875 C-33.34237625 67.58540268 -33.34237625 67.58540268 -32.85079956 66.5128479 C-31.80381883 64.23421003 -30.74615808 61.9607333 -29.6875 59.6875 C-28.95726292 58.10782222 -28.22736656 56.52798688 -27.49780273 54.94799805 C-25.34417059 50.29288952 -23.17375991 45.64573554 -21 41 C-20.40461486 39.72428737 -19.80923676 38.44857146 -19.21386719 37.17285156 C-13.27960097 24.4962337 -7.1162714 12.05812654 0 0 Z " fill="#7F7F7F" transform="translate(119,543)"/>
<path d="M0 0 C2.84201721 1.42738901 3.50890792 3.32783969 4.89916992 6.15893555 C5.4512915 7.26994629 6.00341309 8.38095703 6.57226562 9.52563477 C7.1624561 10.75199762 7.75187206 11.97873348 8.34057617 13.20581055 C8.95872747 14.47058105 9.57747062 15.73506244 10.19677734 16.99926758 C18.77793078 34.61624904 26.75463287 52.52452187 34.21557617 70.64331055 C34.59496338 71.56418457 34.97435059 72.48505859 35.36523438 73.43383789 C35.70385498 74.26995605 36.04247559 75.10607422 36.39135742 75.9675293 C36.6856665 76.69415771 36.97997559 77.42078613 37.28320312 78.16943359 C37.90307617 79.95581055 37.90307617 79.95581055 37.90307617 81.95581055 C34.44726303 83.46166577 30.98802864 84.95949344 27.52807617 86.45581055 C26.54323242 86.88506836 25.55838867 87.31432617 24.54370117 87.7565918 C23.60268555 88.16264648 22.66166992 88.56870117 21.69213867 88.98706055 C20.82282715 89.36411133 19.95351562 89.74116211 19.05786133 90.12963867 C16.90307617 90.95581055 16.90307617 90.95581055 14.90307617 90.95581055 C14.61811279 90.28042236 14.33314941 89.60503418 14.03955078 88.90917969 C-1.36428808 52.44357727 -1.36428808 52.44357727 -18.66015625 16.85180664 C-21.09692383 12.14323294 -21.09692383 12.14323294 -21.09692383 9.95581055 C-18.02417537 8.24848009 -14.93726595 6.56855406 -11.84692383 4.89331055 C-10.97422852 4.40797852 -10.1015332 3.92264648 -9.20239258 3.42260742 C-8.35805664 2.96821289 -7.5137207 2.51381836 -6.64379883 2.0456543 C-5.86875 1.62147217 -5.09370117 1.19729004 -4.29516602 0.76025391 C-2.09692383 -0.04418945 -2.09692383 -0.04418945 0 0 Z " fill="#7F7F7F" transform="translate(1936.096923828125,559.044189453125)"/>
<path d="M0 0 C1.90990486 2.74933249 3.27599163 5.81100978 4.75 8.8125 C5.38615234 10.04323242 5.38615234 10.04323242 6.03515625 11.29882812 C6.43089844 12.09353516 6.82664062 12.88824219 7.234375 13.70703125 C7.59756836 14.4338208 7.96076172 15.16061035 8.33496094 15.90942383 C9.16228543 18.51015057 9.22274071 19.54583787 8 22 C5.59277344 23.62475586 5.59277344 23.62475586 2.359375 25.21484375 C1.77370255 25.50689697 1.18803009 25.7989502 0.58460999 26.09985352 C-1.35336233 27.06053039 -3.30097545 27.99947296 -5.25 28.9375 C-6.60746709 29.6023555 -7.96464117 30.26780956 -9.3215332 30.93383789 C-23.05653612 37.63873139 -36.98482475 43.90534678 -51 50 C-52.0091748 50.44053711 -53.01834961 50.88107422 -54.05810547 51.33496094 C-56.74331212 52.50315578 -59.43248419 53.66126629 -62.125 54.8125 C-62.89481201 55.14435303 -63.66462402 55.47620605 -64.45776367 55.81811523 C-67.46315392 57.0827201 -69.70483982 58 -73 58 C-75.97 50.74 -78.94 43.48 -82 36 C-79.0994764 34.0663176 -76.40247898 32.81060943 -73.19921875 31.453125 C-72.00893066 30.94483154 -70.81864258 30.43653809 -69.59228516 29.9128418 C-68.95671692 29.64241058 -68.32114868 29.37197937 -67.6663208 29.09335327 C-56.06319602 24.14821966 -44.55015552 19.03094895 -33.125 13.6875 C-32.49511169 13.39338226 -31.86522339 13.09926453 -31.21624756 12.79623413 C-23.20170152 9.04798883 -15.21307701 5.24624811 -7.42431641 1.04370117 C-3.32052031 -1.1068401 -3.32052031 -1.1068401 0 0 Z " fill="#808080" transform="translate(1480,1916)"/>
<path d="M0 0 C4.86868554 0.5809865 8.93723531 2.09587333 13.34375 4.1484375 C14.05429031 4.47317551 14.76483063 4.79791351 15.49690247 5.13249207 C17.83516407 6.20508841 20.16775911 7.28938091 22.5 8.375 C23.29981293 8.7443869 24.09962585 9.1137738 24.92367554 9.49435425 C43.83016005 18.22876462 62.43538701 27.56537088 81 37 C81 41.01431218 80.6386161 42.16856022 78.8125 45.546875 C78.13574219 46.81337891 78.13574219 46.81337891 77.4453125 48.10546875 C76.96835938 48.97816406 76.49140625 49.85085937 76 50.75 C75.52304688 51.63816406 75.04609375 52.52632812 74.5546875 53.44140625 C73.37711363 55.63169365 72.19203592 57.81755976 71 60 C66.57316856 58.33671792 62.42413985 56.25147078 58.21875 54.10546875 C56.65205475 53.31218769 55.08515154 52.51931723 53.51806641 51.72680664 C52.6989679 51.31206085 51.87986938 50.89731506 51.03594971 50.47000122 C35.78647431 42.75791184 20.44284489 35.41899083 4.7890625 28.56640625 C0.11154315 26.51781902 -4.45979658 24.33638205 -9 22 C-6.66062389 14.33204498 -3.45231194 7.22862726 0 0 Z " fill="#7F7F7F" transform="translate(1423,81)"/>
<path d="M0 0 C1.3417678 3.26743656 2.67194359 6.53946908 4 9.8125 C4.3815625 10.74126953 4.763125 11.67003906 5.15625 12.62695312 C5.5171875 13.51962891 5.878125 14.41230469 6.25 15.33203125 C6.75273438 16.56530151 6.75273438 16.56530151 7.265625 17.82348633 C8 20 8 20 8 23 C6.94127686 23.45624756 5.88255371 23.91249512 4.79174805 24.38256836 C-16.1215561 33.4102892 -36.87567493 42.64686624 -57.28051758 52.77905273 C-58.32592712 53.29633438 -58.32592712 53.29633438 -59.39245605 53.82406616 C-60.68281726 54.46364112 -61.97138071 55.10686241 -63.25769043 55.75454712 C-66.13380226 57.18268646 -68.83430778 58.39958491 -72 59 C-73.64954167 55.89779023 -75.2939881 52.79290789 -76.9375 49.6875 C-77.40607422 48.80642578 -77.87464844 47.92535156 -78.35742188 47.01757812 C-79.0293457 45.74624023 -79.0293457 45.74624023 -79.71484375 44.44921875 C-80.12855225 43.66893311 -80.54226074 42.88864746 -80.96850586 42.0847168 C-82 40 -82 40 -83 37 C-58.3541572 24.50242302 -33.49038744 12.67464348 -8 2 C-7.11248047 1.6174707 -6.22496094 1.23494141 -5.31054688 0.84082031 C-3 0 -3 0 0 0 Z " fill="#7F7F7F" transform="translate(641,74)"/>
<path d="M0 0 C4.39266291 1.65163275 8.53689525 3.72898388 12.7109375 5.859375 C14.26737663 6.64753345 15.82402624 7.43527636 17.38085938 8.22265625 C18.19578857 8.63531738 19.01071777 9.04797852 19.8503418 9.47314453 C36.72939997 18.00979227 53.75554131 26.07691253 71.07617188 33.67578125 C74.09211182 35.04171798 77.04822559 36.50103489 80 38 C78.68890091 41.2922264 77.37588318 44.58368421 76.0625 47.875 C75.68931641 48.81214844 75.31613281 49.74929688 74.93164062 50.71484375 C74.39506836 52.05869141 74.39506836 52.05869141 73.84765625 53.4296875 C73.51773682 54.25710449 73.18781738 55.08452148 72.84790039 55.93701172 C72 58 72 58 71 60 C66.27398337 59.41384478 62.49024826 58.07661482 58.1640625 56.10546875 C57.50351868 55.80584229 56.84297485 55.50621582 56.16241455 55.19750977 C53.97916856 54.20287849 51.80177209 53.19621412 49.625 52.1875 C48.8754303 51.84240387 48.1258606 51.49730774 47.35357666 51.14175415 C35.00546712 45.4508679 22.75689589 39.55555005 10.57244873 33.52261353 C8.77481989 32.63286962 6.97570301 31.74612581 5.17510986 30.86239624 C2.65037944 29.62065514 0.1328824 28.36539476 -2.3828125 27.10546875 C-3.14156677 26.73421875 -3.90032104 26.36296875 -4.68206787 25.98046875 C-9.88523998 23.34428006 -9.88523998 23.34428006 -11 20 C-10.21142578 17.93115234 -10.21142578 17.93115234 -8.9453125 15.5859375 C-8.49542969 14.74289062 -8.04554688 13.89984375 -7.58203125 13.03125 C-7.10121094 12.1546875 -6.62039063 11.278125 -6.125 10.375 C-5.65191406 9.49070312 -5.17882812 8.60640625 -4.69140625 7.6953125 C-1.18851225 1.18851225 -1.18851225 1.18851225 0 0 Z " fill="#808080" transform="translate(554,1907)"/>
<path d="M0 0 C7.26 2.97 14.52 5.94 22 9 C21.15348597 14.07908418 20.19000347 17.26089127 18.10546875 21.8359375 C17.80584229 22.49648132 17.50621582 23.15702515 17.19750977 23.83758545 C16.20287849 26.02083144 15.19621412 28.19822791 14.1875 30.375 C13.84240387 31.1245697 13.49730774 31.8741394 13.14175415 32.64642334 C7.4508679 44.99453288 1.55555005 57.24310411 -4.47738647 69.42755127 C-5.36713038 71.22518011 -6.25387419 73.02429699 -7.13760376 74.82489014 C-8.37934486 77.34962056 -9.63460524 79.8671176 -10.89453125 82.3828125 C-11.26578125 83.14156677 -11.63703125 83.90032104 -12.01953125 84.68206787 C-14.65571994 89.88523998 -14.65571994 89.88523998 -18 91 C-20.06884766 90.24316406 -20.06884766 90.24316406 -22.4140625 89.015625 C-23.67863281 88.35433594 -23.67863281 88.35433594 -24.96875 87.6796875 C-25.8453125 87.20789062 -26.721875 86.73609375 -27.625 86.25 C-28.50929688 85.79367187 -29.39359375 85.33734375 -30.3046875 84.8671875 C-36.87277756 81.38166731 -36.87277756 81.38166731 -38 78 C-37.26586914 76.07177734 -37.26586914 76.07177734 -36.03515625 73.8359375 C-35.57278564 72.97790527 -35.11041504 72.11987305 -34.6340332 71.23583984 C-34.11542725 70.2917627 -33.59682129 69.34768555 -33.0625 68.375 C-27.7644997 58.47355676 -22.71082199 48.47901571 -17.8125 38.375 C-17.47065674 37.67066833 -17.12881348 36.96633667 -16.77661133 36.24066162 C-11.71745188 25.79361145 -6.94118542 15.25979361 -2.50390625 4.53125 C-1 1 -1 1 0 0 Z " fill="#808080" transform="translate(1945,1414)"/>
<path d="M0 0 C8.06480039 2.13337405 16.03946386 4.50679552 24 7 C22.39314646 13.06743466 20.68758517 19.09732103 18.87109375 25.10546875 C13.44305805 43.08848422 8.57675816 61.13726395 4.22436523 79.4128418 C4.02274277 80.24655304 3.8211203 81.08026428 3.61338806 81.9392395 C3.23373485 83.50993759 2.86089418 85.08230269 2.49586487 86.65646362 C2.05927165 88.45385278 1.53778026 90.23025036 1 92 C-2.90275548 93.95137774 -7.96516561 91.63540996 -12.0625 90.6875 C-13.6103418 90.3481543 -13.6103418 90.3481543 -15.18945312 90.00195312 C-16.16978516 89.77830078 -17.15011719 89.55464844 -18.16015625 89.32421875 C-19.06386963 89.11885498 -19.96758301 88.91349121 -20.89868164 88.7019043 C-23 88 -23 88 -24 86 C-23.51999941 83.44826725 -22.96538991 80.97549205 -22.33203125 78.4609375 C-22.14110397 77.68375366 -21.9501767 76.90656982 -21.75346375 76.10583496 C-21.11542986 73.52656595 -20.46493993 70.95066028 -19.8125 68.375 C-19.59190918 67.49539612 -19.37131836 66.61579224 -19.14404297 65.70953369 C-13.58565661 43.60335962 -7.29438819 21.60099137 0 0 Z " fill="#7F7F7F" transform="translate(49,707)"/>
<path d="M0 0 C0.28609131 0.65258789 0.57218262 1.30517578 0.86694336 1.97753906 C3.75579192 8.56381388 6.65224385 15.1466979 9.55566406 21.7265625 C10.4310302 23.710489 11.30560548 25.69476506 12.17871094 27.6796875 C15.8496627 36.01264687 19.6315815 44.28125989 23.6015625 52.4765625 C24.07480202 53.45351074 24.07480202 53.45351074 24.55760193 54.45019531 C26.13242909 57.69664894 27.71384784 60.9397146 29.30395508 64.17871094 C29.88883751 65.37695172 30.47371719 66.57519385 31.05859375 67.7734375 C31.57736084 68.82966309 32.09612793 69.88588867 32.63061523 70.97412109 C33.97216512 73.9384943 35.02981023 76.8964375 36 80 C32.92725154 81.70733046 29.84034212 83.38725648 26.75 85.0625 C25.87730469 85.54783203 25.00460938 86.03316406 24.10546875 86.53320312 C23.26113281 86.98759766 22.41679688 87.44199219 21.546875 87.91015625 C20.77182617 88.33433838 19.99677734 88.75852051 19.19824219 89.19555664 C17 90 17 90 14.91674805 89.9831543 C11.96120865 88.46717453 11.23569882 86.30901201 9.78515625 83.359375 C9.49310303 82.77370255 9.2010498 82.18803009 8.90014648 81.58460999 C7.93946961 79.64663767 7.00052704 77.69902455 6.0625 75.75 C5.3976445 74.39253291 4.73219044 73.03535883 4.06616211 71.6784668 C-2.63873139 57.94346388 -8.90534678 44.01517525 -15 30 C-15.66080566 28.48623779 -15.66080566 28.48623779 -16.33496094 26.94189453 C-17.50315578 24.25668788 -18.66126629 21.56751581 -19.8125 18.875 C-20.14435303 18.10518799 -20.47620605 17.33537598 -20.81811523 16.54223633 C-22.0827201 13.53684608 -23 11.29516018 -23 8 C-19.73256344 6.6582322 -16.46053092 5.32805641 -13.1875 4 C-12.25873047 3.6184375 -11.32996094 3.236875 -10.37304688 2.84375 C-9.0340332 2.30234375 -9.0340332 2.30234375 -7.66796875 1.75 C-6.84578857 1.41484375 -6.0236084 1.0796875 -5.17651367 0.734375 C-3 0 -3 0 0 0 Z " fill="#808080" transform="translate(97,1399)"/>
<path d="M0 0 C5.79200983 0.49585379 11.39491451 1.14896651 17.0625 2.5 C18.16722656 2.7578125 19.27195312 3.015625 20.41015625 3.28125 C23 4 23 4 24 5 C23.82188281 10.83351291 22.5538374 16.51637765 21.1015625 22.14453125 C20.81524712 23.27869728 20.81524712 23.27869728 20.52314758 24.43577576 C19.89813128 26.89672757 19.26249482 29.35475324 18.625 31.8125 C18.40812531 32.65639282 18.19125061 33.50028564 17.96780396 34.36975098 C12.97305591 53.75975814 7.33257859 73.00226424 1 92 C-7.26218593 90.40554307 -15.06288986 87.73981931 -23 85 C-21.02331603 77.67372814 -18.97152277 70.37306935 -16.85546875 63.0859375 C-7.73438187 31.72403415 -7.73438187 31.72403415 0 0 Z " fill="#7F7F7F" transform="translate(1998,1249)"/>
<path d="M0 0 C7.57515506 23.82454727 14.10654273 47.97738599 19.5625 72.375 C19.93967163 74.05867676 19.93967163 74.05867676 20.32446289 75.77636719 C21.24147911 79.9900946 22 83.66884444 22 88 C14.08 89.65 6.16 91.3 -2 93 C-2.75023437 89.79667969 -3.50046875 86.59335937 -4.2734375 83.29296875 C-10.23133375 57.99889836 -16.51597691 32.88814389 -24 8 C-21.76439998 5.76439998 -20.48969316 5.37620476 -17.5 4.4921875 C-16.613125 4.22792969 -15.72625 3.96367188 -14.8125 3.69140625 C-13.884375 3.42199219 -12.95625 3.15257812 -12 2.875 C-11.071875 2.59785156 -10.14375 2.32070313 -9.1875 2.03515625 C-2.29002463 0 -2.29002463 0 0 0 Z " fill="#7F7F7F" transform="translate(2004,724)"/>
<path d="M0 0 C8.03314559 0.63672055 15.6419884 2.45629168 23.4375 4.4375 C24.12187134 4.60963013 24.80624268 4.78176025 25.51135254 4.95910645 C36.82894785 7.81214473 48.05543844 10.94897388 59.25 14.25 C59.95607391 14.45801239 60.66214783 14.66602478 61.38961792 14.88034058 C69.9831048 17.42080638 78.51997064 20.10135725 87 23 C86.37602244 28.34236968 85.18079431 33.2511877 83.5625 38.375 C83.23668945 39.45974609 83.23668945 39.45974609 82.90429688 40.56640625 C82.33204036 42.39831448 81.67250172 44.20247205 81 46 C77.96078023 47.51960988 76.11697818 46.28097215 72.921875 45.26171875 C71.62082884 44.85405455 70.31971886 44.44659401 69.01855469 44.03930664 C68.32451538 43.81920929 67.63047607 43.59911194 66.91540527 43.37234497 C53.28991773 39.06306082 39.57580928 35.17412951 25.75 31.5625 C24.55739563 31.24966568 24.55739563 31.24966568 23.34069824 30.93051147 C13.9267355 28.46538507 4.49811462 26.12171918 -5 24 C-3.7490103 15.86897711 -2.11488827 7.9519799 0 0 Z " fill="#7F7F7F" transform="translate(1253,26)"/>
<path d="M0 0 C7.32627186 1.97668397 14.62693065 4.02847723 21.9140625 6.14453125 C53.27596585 15.26561813 53.27596585 15.26561813 85 23 C84.48011284 28.93908827 83.79846836 34.72847316 82.5625 40.5625 C82.31628906 41.76003906 82.07007813 42.95757813 81.81640625 44.19140625 C81.54699219 45.11824219 81.27757812 46.04507812 81 47 C78.49620503 48.25189749 77.75068044 47.87441084 75.07739258 47.20239258 C74.26111389 47.00037735 73.44483521 46.79836212 72.6038208 46.59022522 C71.70975525 46.36064621 70.8156897 46.1310672 69.89453125 45.89453125 C68.49071198 45.54128029 68.49071198 45.54128029 67.05853271 45.18089294 C63.97416901 44.40036506 60.8931913 43.60739087 57.8125 42.8125 C56.24506546 42.41158142 56.24506546 42.41158142 54.64596558 42.00256348 C33.88143629 36.67992399 13.40381888 30.55931192 -7 24 C-5.02159181 15.84625702 -2.73790749 7.93049066 0 0 Z " fill="#7F7F7F" transform="translate(714,1975)"/>
<path d="M0 0 C0.67332993 3.08191704 1.33748859 6.1657408 2 9.25 C2.19078125 10.12269531 2.3815625 10.99539062 2.578125 11.89453125 C2.75859375 12.73886719 2.9390625 13.58320312 3.125 14.453125 C3.29257812 15.22817383 3.46015625 16.00322266 3.6328125 16.80175781 C4 19 4 19 4 23 C2.78981201 23.28085449 1.57962402 23.56170898 0.33276367 23.85107422 C-24.65899687 29.66686571 -49.47040359 35.80964223 -74.06298828 43.14306641 C-76.36764762 43.81549818 -78.66547154 44.44293714 -81 45 C-88 28.29949239 -88 28.29949239 -88 21 C-77.09368479 17.19853687 -66.11394093 14.02216425 -54.9375 11.125 C-54.12193634 10.9123349 -53.30637268 10.6996698 -52.46609497 10.4805603 C-41.62758901 7.65666074 -30.77488448 4.88413531 -19.88162231 2.27850342 C-17.97886386 1.82241486 -16.07814754 1.35783333 -14.17749023 0.89306641 C-12.46348022 0.491604 -12.46348022 0.491604 -10.71484375 0.08203125 C-9.72605225 -0.15281982 -8.73726074 -0.3876709 -7.71850586 -0.62963867 C-4.85333193 -1.01998163 -2.77901522 -0.73615249 0 0 Z " fill="#7F7F7F" transform="translate(812,23)"/>
<path d="M0 0 C1.0070436 3.1019264 2.00440805 6.20688098 3 9.3125 C3.28617188 10.19357422 3.57234375 11.07464844 3.8671875 11.98242188 C4.27324219 13.25375977 4.27324219 13.25375977 4.6875 14.55078125 C4.93886719 15.33106689 5.19023438 16.11135254 5.44921875 16.9152832 C6 19 6 19 6 22 C-5.62692126 26.08794369 -17.38464516 29.35697534 -29.3125 32.4375 C-30.22921478 32.67578522 -31.14592957 32.91407043 -32.09042358 33.15957642 C-43.47029821 36.11677025 -54.86219005 39.01444864 -66.3125 41.6875 C-67.34737549 41.93105225 -68.38225098 42.17460449 -69.44848633 42.42553711 C-70.86037231 42.74663452 -70.86037231 42.74663452 -72.30078125 43.07421875 C-73.09653564 43.25557373 -73.89229004 43.43692871 -74.7121582 43.6237793 C-77.177799 44.02923789 -79.50561623 44.0654165 -82 44 C-82.67507066 40.93929066 -83.33854922 37.8761791 -84 34.8125 C-84.19078125 33.94818359 -84.3815625 33.08386719 -84.578125 32.19335938 C-84.84882812 30.93168945 -84.84882812 30.93168945 -85.125 29.64453125 C-85.29257813 28.87471924 -85.46015625 28.10490723 -85.6328125 27.31176758 C-86.02550915 24.83939753 -86.06185285 22.49924191 -86 20 C-84.78981201 19.71914551 -83.57962402 19.43829102 -82.33276367 19.14892578 C-76.61511287 17.8184601 -70.9007516 16.47422147 -65.1875 15.125 C-63.63592697 14.75900696 -63.63592697 14.75900696 -62.05300903 14.38562012 C-46.40973669 10.6815318 -30.92633648 6.61505078 -15.5534668 1.91064453 C-14.87044495 1.70591522 -14.1874231 1.50118591 -13.48370361 1.29025269 C-11.66988952 0.74590474 -9.86002404 0.18844643 -8.05053711 -0.37011719 C-4.93433581 -1.01355851 -3.02781936 -0.87771074 0 0 Z " fill="#808080" transform="translate(1318,1982)"/>
<path d="M0 0 C0.28085449 1.21018799 0.56170898 2.42037598 0.85107422 3.66723633 C2.18157368 9.38487942 3.52530617 15.0993593 4.875 20.8125 C5.1193277 21.84688202 5.3636554 22.88126404 5.61538696 23.94699097 C9.32269875 39.5789363 13.38147568 55.05954642 18.00146484 70.4465332 C18.20438644 71.12955505 18.40730804 71.8125769 18.61637878 72.51629639 C19.15651904 74.32933048 19.70615137 76.13952934 20.2565918 77.94946289 C20.94586805 80.77787234 21.1556541 83.1067246 21 86 C17.73120384 87.00674459 14.4596529 88.00422489 11.1875 89 C10.25873047 89.28617188 9.32996094 89.57234375 8.37304688 89.8671875 C7.0340332 90.27324219 7.0340332 90.27324219 5.66796875 90.6875 C4.84578857 90.93886719 4.0236084 91.19023438 3.17651367 91.44921875 C1 92 1 92 -2 92 C-5.80146313 81.09368479 -8.97783575 70.11394093 -11.875 58.9375 C-12.0876651 58.12193634 -12.3003302 57.30637268 -12.5194397 56.46609497 C-15.34333926 45.62758901 -18.11586469 34.77488448 -20.72149658 23.88162231 C-21.17758514 21.97886386 -21.64216667 20.07814754 -22.10693359 18.17749023 C-22.3745752 17.03481689 -22.6422168 15.89214355 -22.91796875 14.71484375 C-23.15281982 13.72605225 -23.3876709 12.73726074 -23.62963867 11.71850586 C-24.01998163 8.85333193 -23.73615249 6.77901522 -23 4 C-19.91808296 3.32667007 -16.8342592 2.66251141 -13.75 2 C-12.87730469 1.80921875 -12.00460938 1.6184375 -11.10546875 1.421875 C-9.83896484 1.15117188 -9.83896484 1.15117188 -8.546875 0.875 C-7.38430176 0.62363281 -7.38430176 0.62363281 -6.19824219 0.3671875 C-4 0 -4 0 0 0 Z " fill="#7F7F7F" transform="translate(46,1232)"/>
<path d="M0 0 C8.25 0 16.5 0 25 0 C25.18175781 3.26132813 25.36351563 6.52265625 25.55078125 9.8828125 C27.25378941 40.56841314 27.25378941 40.56841314 30.08520508 71.16455078 C30.20532959 72.23688965 30.3254541 73.30922852 30.44921875 74.4140625 C30.55580811 75.3107666 30.66239746 76.2074707 30.7722168 77.13134766 C31.05904956 80.74365735 31 84.37632033 31 88 C19.12 89.485 19.12 89.485 7 91 C2.70685217 60.94796522 0 30.36677247 0 0 Z " fill="#7F7F7F" transform="translate(0,1059)"/>
<path d="M0 0 C8.06610316 -0.12871441 15.97190995 0.22813057 24 1 C24.34689761 12.69815845 23.29172014 24.23535256 22.25 35.875 C22.1617395 36.88169739 22.073479 37.88839478 21.98254395 38.92559814 C20.44975689 56.35214938 18.48579251 73.68337788 16 91 C7.58432901 90.4237919 -0.67948259 89.38227951 -9 88 C-8.86424561 86.87658203 -8.72849121 85.75316406 -8.58862305 84.59570312 C-5.85790984 61.87383603 -3.43869853 39.18216551 -1.90112305 16.34570312 C-1.84617172 15.54124756 -1.7912204 14.73679199 -1.73460388 13.90795898 C-1.6336471 12.41488153 -1.53618899 10.92156143 -1.44300842 9.42797852 C-1.22671375 6.18571022 -0.94799174 3.117396 0 0 Z " fill="#7F7F7F" transform="translate(2023,1076)"/>
<path d="M0 0 C0.75363052 3.35091771 1.11979937 6.43109812 1.09765625 9.86328125 C1.09282227 11.19262695 1.09282227 11.19262695 1.08789062 12.54882812 C1.07532227 13.9168457 1.07532227 13.9168457 1.0625 15.3125 C1.05798828 16.24384766 1.05347656 17.17519531 1.04882812 18.13476562 C1.03709234 20.42324373 1.02067363 22.71158808 1 25 C0.10434326 25.03963867 -0.79131348 25.07927734 -1.71411133 25.12011719 C-22.83284402 26.08520981 -43.84228756 27.58096652 -64.88012695 29.67871094 C-66.2046991 29.8091832 -66.2046991 29.8091832 -67.55603027 29.94229126 C-69.19866273 30.1048177 -70.84095506 30.27084085 -72.48278809 30.44125366 C-73.22492554 30.51494171 -73.96706299 30.58862976 -74.73168945 30.66455078 C-75.36621536 30.72957794 -76.00074127 30.7946051 -76.65449524 30.86160278 C-80.09731728 31.06474754 -83.55118986 31 -87 31 C-87.99 23.08 -88.98 15.16 -90 7 C-60.40243766 3.01571276 -29.91210128 -0.60496385 0 0 Z " fill="#808080" transform="translate(988,0)"/>
<path d="M0 0 C2.05228572 13.90023306 3.50176035 27.81098475 4.625 41.8125 C4.68716705 42.57984467 4.74933411 43.34718933 4.81338501 44.13778687 C5.48988335 52.54861322 6.09031606 60.96322456 6.5859375 69.38671875 C6.62836578 70.07441849 6.67079407 70.76211823 6.71450806 71.47065735 C7.06113595 77.67351334 7 83.75369686 7 90 C-5.375 90.495 -5.375 90.495 -18 91 C-18.18175781 87.73867188 -18.36351562 84.47734375 -18.55078125 81.1171875 C-20.25378941 50.43158686 -20.25378941 50.43158686 -23.08520508 19.83544922 C-23.71837726 14.1831878 -24.25003553 8.6899978 -24 3 C-21.97442368 0.97442368 -18.15922135 1.27249989 -15.375 0.9375 C-14.67503906 0.84662109 -13.97507812 0.75574219 -13.25390625 0.66210938 C-8.80031697 0.11264057 -4.48667653 -0.0883204 0 0 Z " fill="#808080" transform="translate(2041,899)"/>
<path d="M0 0 C11.30926337 -0.37400714 22.49808197 0.74551537 33.75 1.75 C35.26137543 1.88239075 35.26137543 1.88239075 36.80328369 2.01745605 C54.59570941 3.58081169 72.30621333 5.56568562 90 8 C89.55554791 11.79342979 89.09210075 15.58429779 88.625 19.375 C88.43550781 20.99535156 88.43550781 20.99535156 88.2421875 22.6484375 C88.11328125 23.6796875 87.984375 24.7109375 87.8515625 25.7734375 C87.73635254 26.72653809 87.62114258 27.67963867 87.50244141 28.66162109 C87 31 87 31 85 33 C82.20114893 32.85489717 79.53939869 32.58542353 76.76953125 32.20703125 C75.92284378 32.10124252 75.07615631 31.9954538 74.20381165 31.88645935 C72.36704519 31.65689086 70.53083205 31.42286186 68.69512939 31.18493652 C50.8699752 28.88192162 33.05635286 27.1473358 15.12817383 25.90161133 C14.34613083 25.84658951 13.56408783 25.79156769 12.75834656 25.73487854 C11.31060075 25.63404057 9.86262148 25.53647292 8.41438293 25.44297791 C4.86919969 25.2003191 1.46568622 24.79163306 -2 24 C-1.86076462 20.74968216 -1.71245815 17.49983939 -1.5625 14.25 C-1.52318359 13.32960938 -1.48386719 12.40921875 -1.44335938 11.4609375 C-1.40146484 10.57148438 -1.35957031 9.68203125 -1.31640625 8.765625 C-1.27974854 7.94868164 -1.24309082 7.13173828 -1.20532227 6.29003906 C-1.00865725 4.0965577 -0.59699406 2.11603587 0 0 Z " fill="#808080" transform="translate(1077,1)"/>
<path d="M0 0 C0.33970765 2.49927769 0.67188032 4.99919595 1 7.5 C1.09539062 8.19609375 1.19078125 8.8921875 1.2890625 9.609375 C1.9161622 14.44700129 2.08789528 19.12181196 2 24 C-7.20489476 25.52175749 -16.39811302 26.6438541 -25.6875 27.5 C-26.36154877 27.56281158 -27.03559753 27.62562317 -27.73007202 27.69033813 C-38.91196343 28.72519421 -50.10274104 29.52463788 -61.3125 30.1875 C-62.37855972 30.25155029 -62.37855972 30.25155029 -63.46615601 30.31689453 C-65.51497503 30.43831485 -67.56401761 30.55432107 -69.61328125 30.66796875 C-71.35798706 30.76501099 -71.35798706 30.76501099 -73.13793945 30.86401367 C-78.08909873 31.03834806 -83.04577245 31 -88 31 C-88 22.75 -88 14.5 -88 6 C-84.73867187 5.81824219 -81.47734375 5.63648438 -78.1171875 5.44921875 C-47.43158686 3.74621059 -47.43158686 3.74621059 -16.83544922 0.91479492 C-11.17540549 0.28075095 -5.69650645 -0.14482644 0 0 Z " fill="#808080" transform="translate(1147,2017)"/>
<path d="M0 0 C1.12341797 0.13575439 2.24683594 0.27150879 3.40429688 0.41137695 C26.12616397 3.14209016 48.81783449 5.56130147 71.65429688 7.09887695 C72.86098022 7.18130394 72.86098022 7.18130394 74.09204102 7.26539612 C75.58511847 7.3663529 77.07843857 7.46381101 78.57202148 7.55699158 C81.81428978 7.77328625 84.882604 8.05200826 88 9 C88.10476501 17.07854638 87.9861459 24.97838086 87 33 C75.50989303 33.38407043 64.12191444 32.24501498 52.6875 31.25 C51.6546286 31.1617395 50.6217572 31.073479 49.55758667 30.98254395 C31.96516329 29.47279787 14.47574857 27.52759345 -3 25 C-2.68978487 21.95808469 -2.37690547 18.91648266 -2.0625 15.875 C-1.97548828 15.0190625 -1.88847656 14.163125 -1.79882812 13.28125 C-1.71181641 12.44335938 -1.62480469 11.60546875 -1.53515625 10.7421875 C-1.41732788 9.59532471 -1.41732788 9.59532471 -1.29711914 8.42529297 C-0.9510307 5.60027855 -0.4839402 2.8043714 0 0 Z " fill="#808080" transform="translate(884,2014)"/>
<path d="M0 0 C11.88 1.485 11.88 1.485 24 3 C24 13.1216397 24 13.1216397 23.57275391 16.78417969 C23.4321907 18.02562241 23.4321907 18.02562241 23.28878784 19.29214478 C23.18575348 20.15995575 23.08271912 21.02776672 22.9765625 21.921875 C22.75863347 23.84129093 22.5408662 25.76072524 22.32324219 27.68017578 C22.20895874 28.67245178 22.09467529 29.66472778 21.97692871 30.68707275 C20.141048 46.66522083 18.47195187 62.61231634 17.54541016 78.67089844 C17.48401855 79.73083008 17.42262695 80.79076172 17.359375 81.8828125 C17.31264648 82.78402832 17.26591797 83.68524414 17.21777344 84.61376953 C17.0144205 86.84198884 16.61063664 88.85153304 16 91 C13.31243045 91.02720824 10.62514202 91.0469388 7.9375 91.0625 C7.18533203 91.07087891 6.43316406 91.07925781 5.65820312 91.08789062 C0.99366882 91.10808341 -3.39923173 90.77595959 -8 90 C-8.34689761 78.30184155 -7.29172014 66.76464744 -6.25 55.125 C-6.11760925 53.61495392 -6.11760925 53.61495392 -5.98254395 52.07440186 C-4.44955663 34.64557378 -2.46326706 17.32148431 0 0 Z " fill="#808080" transform="translate(9,881)"/>
</svg>
