<?xml version="1.0" encoding="UTF-8"?>
<svg version="1.1" xmlns="http://www.w3.org/2000/svg" width="225" height="225">
<path d="M0 0 C74.25 0 148.5 0 225 0 C225 74.25 225 148.5 225 225 C150.75 225 76.5 225 0 225 C0 150.75 0 76.5 0 0 Z " fill="#081E2B" transform="translate(0,0)"/>
<path d="M0 0 C20.72323918 20.35251933 39.59104055 47.25583153 40.41796875 77.19580078 C40.60162344 104.15171844 30.90694216 123.1033976 13.140625 142.84375 C11 145 11 145 8.31640625 146.640625 C4.71588443 150.30793559 4.97623315 154.28239833 4.6875 159.25 C4.57825195 160.65378906 4.57825195 160.65378906 4.46679688 162.0859375 C4.29047077 164.3899319 4.13566874 166.69331363 4 169 C2.00045254 169.04254356 -0.00041636 169.04080783 -2 169 C-4.21642067 166.78357933 -3.24857002 160.59797681 -3.25390625 157.43359375 C-3.39007965 153.28388853 -3.57993673 151.51484677 -6.28515625 148.19921875 C-7.62900391 147.11060547 -7.62900391 147.11060547 -9 146 C-24.78699171 131.26742703 -37.86082944 110.92228983 -39.12646484 88.78833008 C-40.15793164 57.10521772 -27.5488563 33.49558254 -7.53662109 9.87011719 C-4.90662998 6.6693336 -2.45191767 3.33810687 0 0 Z " fill="#00EA63" transform="translate(112,28)"/>
<path d="M0 0 C0.33 0 0.66 0 1 0 C1 35.64 1 71.28 1 108 C-34.31 108 -69.62 108 -106 108 C-106 107.67 -106 107.34 -106 107 C-105.1181604 106.90295776 -105.1181604 106.90295776 -104.21850586 106.80395508 C-71.3954053 103.07514843 -43.8771232 90.18999844 -22.77734375 64.26953125 C-18.61646036 58.51745289 -15.21039149 52.32241444 -12 46 C-11.56816406 45.16082031 -11.13632813 44.32164062 -10.69140625 43.45703125 C-3.94611886 29.5672027 -1.19770866 15.28419266 0 0 Z " fill="#FBFCFC" transform="translate(224,117)"/>
<path d="M0 0 C33.33 0 66.66 0 101 0 C101 35.97 101 71.94 101 109 C100.67 109 100.34 109 100 109 C99.83564453 107.15148437 99.83564453 107.15148437 99.66796875 105.265625 C96.67110778 73.2342409 84.11000582 47.59080896 60 26 C53.51989134 20.76531763 46.36603027 16.83803319 39 13 C38.24589844 12.56816406 37.49179688 12.13632813 36.71484375 11.69140625 C25.66098156 5.60514594 12.39499744 2.82921768 0 1 C0 0.67 0 0.34 0 0 Z " fill="#FCFCFC" transform="translate(124,0)"/>
<path d="M0 0 C1.9424723 3.8849446 2.62460851 6.76249512 3.375 11 C8.67516759 38.76134586 24.44289303 63.30818666 47.375 79.875 C65.44721181 91.68891246 83.66778531 97.5479862 105 100 C105 100.33 105 100.66 105 101 C70.35 101 35.7 101 0 101 C0 67.67 0 34.34 0 0 Z " fill="#FCFCFC" transform="translate(0,124)"/>
<path d="M0 0 C33.33 0 66.66 0 101 0 C97.11721002 1.94139499 93.82599511 2.64372723 89.625 3.3125 C70.34964327 6.73782139 52.36416083 15.63697765 38 29 C37.51337891 29.44569336 37.02675781 29.89138672 36.52539062 30.35058594 C14.71041524 50.49280339 4.45372076 75.98229009 1 105 C0.67 105 0.34 105 0 105 C0 70.35 0 35.7 0 0 Z " fill="#FCFCFC" transform="translate(0,0)"/>
<path d="M0 0 C0.33 0 0.66 0 1 0 C2.82440387 22.644384 4.05038454 45.21830754 4.1875 67.9375 C4.20055176 69.20706543 4.21360352 70.47663086 4.22705078 71.78466797 C4.22817871 72.95787598 4.22930664 74.13108398 4.23046875 75.33984375 C4.23457764 76.38519287 4.23868652 77.43054199 4.24291992 78.50756836 C4 81 4 81 2 83 C-1.53571429 82.46428571 -1.53571429 82.46428571 -3 81 C-3.25307802 77.79004277 -3.16519372 74.55839937 -3.15625 71.33984375 C-3.15451782 70.3225267 -3.15278564 69.30520966 -3.15100098 68.25706482 C-3.05886981 54.67363548 -2.2545649 41.12187928 -1.5 27.5625 C-1.35421198 24.87311397 -1.21028925 22.18362916 -1.06640625 19.49414062 C-0.71735845 12.99573249 -0.36149874 6.4977268 0 0 Z " fill="#07262D" transform="translate(112,92)"/>
</svg>
